<?xml version="1.0" standalone="no"?><!DOCTYPE svg PUBLIC "-//W3C//DTD SVG 1.1//EN" "http://www.w3.org/Graphics/SVG/1.1/DTD/svg11.dtd"><svg class="icon" width="200px" height="200.00px" viewBox="0 0 1024 1024" version="1.1" xmlns="http://www.w3.org/2000/svg"><path d="M168 566.19m-88 0a88 88 0 1 0 176 0 88 88 0 1 0-176 0Z" fill="#FFCEBF" /><path d="M168 670.19a104 104 0 1 1 104-104 104.11 104.11 0 0 1-104 104z m0-176a72 72 0 1 0 72 72 72.08 72.08 0 0 0-72-72z" fill="#222222" /><path d="M856 566.19m-88 0a88 88 0 1 0 176 0 88 88 0 1 0-176 0Z" fill="#FFCEBF" /><path d="M856 670.19a104 104 0 1 1 104-104 104.11 104.11 0 0 1-104 104z m0-176a72 72 0 1 0 72 72 72.08 72.08 0 0 0-72-72z" fill="#222222" /><path d="M862.72 416L864 585c0 207.09-157.6 375-352 375S160 792.13 160 585l1.28-169S160 96 512 96s350.72 320 350.72 320z" fill="#FFCEBF" /><path d="M512 976a347.31 347.31 0 0 1-143.59-30.88 366.42 366.42 0 0 1-117-84 392.06 392.06 0 0 1-78.62-124.22A409.77 409.77 0 0 1 144 585v-0.12l1.28-169c0-2.62 0.22-36.65 12-82.36 11.11-43.08 35.1-105.23 86.27-156.6C307.66 112.63 398 80 512 80s204.34 32.63 268.44 97c51.17 51.37 75.16 113.52 86.27 156.6 11.79 45.71 12 79.74 12 82.36L880 585a409.77 409.77 0 0 1-28.79 151.9 392.06 392.06 0 0 1-78.64 124.23 366.42 366.42 0 0 1-117 84A347.31 347.31 0 0 1 512 976zM176 585.11C176 783 326.75 944 512 944s336-161 336-358.89l-1.28-169.17c0-0.86-0.18-32.93-11.27-75.41-10.18-39-32-95.18-77.92-141.2C699.66 141.38 617.06 112 512 112s-187.89 29.46-245.77 87.57c-88.44 88.79-89 215.1-89 216.37v0.18z" fill="#222222" /><path d="M192 654.19a56 32 0 1 0 112 0 56 32 0 1 0-112 0Z" fill="#FFA096" /><path d="M720 654.19a56 32 0 1 0 112 0 56 32 0 1 0-112 0Z" fill="#FFA096" /><path d="M512 64c-82.21 0-145.41 12.68-193.95 35-58.86 23.59-126 45-174 1 0 28 0 76 57.75 111-35.44 70.75-41.8 160.29-41.8 253l96-128s256 112 416-64c64 64 144 64 144 64l48 128c0-208-32-400-352-400z" fill="#644B46" /><path d="M864 480a16 16 0 0 1-15-10.38l-44.33-118.28c-23.82-2.26-80.74-12.31-132-56.86a307.89 307.89 0 0 1-128.47 77.07c-43 13.19-90.59 18-141.33 14.41a524.26 524.26 0 0 1-141.4-30.58L172.8 473.6A16 16 0 0 1 144 464c0-56.51 2.39-98.76 7.76-137 6-42.62 15.71-78.9 29.64-110.39-21.72-15.86-36.9-35.42-45.22-58.31C128 135.82 128 114.28 128 100a16 16 0 0 1 26.81-11.79c41.25 37.79 102.59 17.86 156.92-3.9C365 59.88 430.49 48 512 48c151.78 0 253 42.29 309.42 129.29C872.9 256.66 880 362 880 464a16 16 0 0 1-13.15 15.74 15.37 15.37 0 0 1-2.85 0.26zM162 131c3.81 21.93 15 46.31 48.08 66.33a16 16 0 0 1 6 20.84C187.64 275 179 346.52 176.73 415l66.47-88.6a16 16 0 0 1 19.21-5.06c0.61 0.27 63.21 27.19 143.68 32.77 105.9 7.33 191.38-23.92 254.07-92.87a16 16 0 0 1 23.15-0.55C741.55 318.92 815.31 320 816 320a16.07 16.07 0 0 1 15 10.38l13.55 36.14c-5.45-63.52-18.77-123.71-49.97-171.81C744.51 117.52 652.08 80 512 80c-75.91 0-138.91 11.29-187.25 33.57l-0.75 0.32c-30.43 12.2-63.07 23.9-95.57 26.91-24.89 2.31-47.13-0.99-66.43-9.8z m156.05-32zM768 512h-28.23a48 48 0 0 0-71.54 0H640a16 16 0 0 0 0 32h16a48 48 0 0 0 96 0h16a16 16 0 0 0 0-32zM384 512h-28.23a48 48 0 0 0-71.54 0H256a16 16 0 0 0 0 32h16a48 48 0 0 0 96 0h16a16 16 0 0 0 0-32zM512 848c-87.23 0-131.77-16.32-133.62-17a16 16 0 0 1 11.19-30c0.62 0.23 41.93 15 122.43 15 80.71 0 122-14.85 122.43-15a16 16 0 1 1 11.19 30c-1.85 0.68-46.39 17-133.62 17z" fill="#222222" /></svg>